<?xml version="1.0" encoding="UTF-8"?>
<svg width="158px" height="145px" viewBox="0 0 158 145" version="1.1" xmlns="http://www.w3.org/2000/svg" xmlns:xlink="http://www.w3.org/1999/xlink">
    <title>PotoFamily log</title>
    <g id="PotoFamily-Logo" stroke="none" stroke-width="1" fill="none" fill-rule="evenodd">
        <g id="PotoFamily-log" transform="translate(0, 0.8041)">
            <g id="big-tomato" transform="translate(-0, 0)">
                <path d="M43.4999334,2.06353647 C49.3482908,5.30270279 53.3076118,11.5369028 53.3076118,18.6958518 C53.3076118,25.8548008 49.3482908,32.0890008 43.4999334,35.3281671 C37.6514595,32.0886075 33.6923882,25.854575 33.6923882,18.6958518 C33.6923882,11.5874126 37.5960365,5.39071933 43.3765606,2.1325446 Z" id="Combined-Shape" fill="#0A9C21" transform="translate(43.5, 18.6959) rotate(-45) translate(-43.5, -18.6959)"></path>
                <path d="M52.5,39.1958518 C62.1663678,39.1958518 71.222572,41.8082725 79.0010981,46.3655992 C63.4456415,55.4775681 53,72.3668548 53,91.6958518 C53,111.024849 63.4456415,127.914135 78.9999047,137.026692 C71.222572,141.583431 62.1663678,144.195852 52.5,144.195852 C23.5050506,144.195852 0,120.690801 0,91.6958518 C0,62.7009024 23.5050506,39.1958518 52.5,39.1958518 Z" id="Combined-Shape" fill="#EA4223"></path>
            </g>
            <g id="little-tomato" transform="translate(62, 71.8782)">
                <path d="M0.891282237,0.457401336 C4.44255923,-0.54045715 8.41454356,0.357615487 11.2085473,3.15161925 C14.0175726,5.96064453 14.9102256,9.9603509 13.8865063,13.5261263 C10.3205175,14.550059 6.3208111,13.657406 3.51178582,10.8483808 C0.702760532,8.03935547 -0.189892473,4.0396491 0.833826804,0.473873736 Z M20.0927849,3.21936888 C22.852253,0.361855935 26.8355731,-0.600501123 30.4185658,0.360647859 C31.5048636,3.90893482 30.6820676,7.9232235 27.9227011,10.7806311 C25.1632329,13.6381441 21.1799129,14.6005011 17.5969201,13.6393521 C16.5106224,10.0910652 17.3334184,6.0767765 20.0927849,3.21936888 Z" id="Combined-Shape" fill="#0A9C21"></path>
                <circle id="Oval" fill="#EA4223" cx="17" cy="31.3176423" r="17"></circle>
            </g>
            <path d="M105.5,39.1958518 C134.494949,39.1958518 158,62.7009024 158,91.6958518 C158,120.690801 134.494949,144.195852 105.5,144.195852 C95.8336322,144.195852 86.777428,141.583431 78.9989019,137.026104 C94.5545098,127.913891 105,111.024709 105,91.6958518 C105,72.3669949 94.5545098,55.4778129 79.0004334,46.3652097 C86.777428,41.8082725 95.8336322,39.1958518 105.5,39.1958518 Z" id="potato" fill="#ED9A1E"></path>
        </g>
    </g>
</svg>